<?xml version="1.0" standalone="no"?>
<!DOCTYPE svg PUBLIC "-//W3C//DTD SVG 20010904//EN"
 "http://www.w3.org/TR/2001/REC-SVG-20010904/DTD/svg10.dtd">
<svg version="1.0" xmlns="http://www.w3.org/2000/svg"
 width="2000.000000pt" height="726.000000pt" viewBox="0 0 2000.000000 726.000000"
 preserveAspectRatio="xMidYMid meet">

<g transform="translate(0.000000,726.000000) scale(0.100000,-0.100000)"
fill="#000000" stroke="none">
<path d="M3380 7114 c-724 -64 -1349 -306 -1910 -740 -149 -115 -471 -437
-585 -584 -399 -517 -633 -1080 -721 -1735 -13 -97 -18 -202 -18 -410 -1 -296
7 -397 50 -635 172 -941 715 -1763 1514 -2289 478 -315 1004 -501 1590 -562
144 -15 509 -15 655 0 810 84 1530 417 2104 976 551 536 910 1240 1020 2000
53 365 44 804 -25 1150 -171 868 -636 1613 -1331 2134 -495 371 -1048 595
-1675 677 -117 15 -563 27 -668 18z m-227 -1040 c16 -49 94 -316 173 -594 80
-278 168 -578 196 -668 l52 -163 160 -152 c685 -650 1351 -1161 1913 -1468 32
-17 85 -110 126 -221 l25 -66 -120 -151 c-101 -127 -124 -151 -146 -151 -15 0
-585 57 -1267 127 -1206 123 -1246 127 -1470 127 -182 -1 -259 -5 -370 -22
-77 -11 -141 -19 -143 -17 -2 2 22 53 53 113 60 116 172 273 274 383 l61 67
-113 55 c-104 51 -223 97 -289 112 -16 3 -28 11 -28 18 0 17 88 150 153 232
31 38 54 71 52 73 -8 8 -269 -127 -364 -188 -137 -89 -272 -226 -245 -249 5
-4 54 -20 109 -35 117 -33 305 -104 305 -115 0 -4 -9 -16 -21 -27 -31 -28
-121 -167 -164 -253 -48 -96 -110 -285 -126 -383 -7 -43 -11 -80 -8 -82 3 -3
77 3 164 14 311 36 469 45 790 44 220 0 345 -4 400 -14 44 -7 157 -15 252 -17
145 -4 173 -7 186 -21 21 -25 1017 -1689 1017 -1699 0 -11 -20 -18 -226 -78
-303 -88 -566 -125 -889 -125 -403 0 -750 65 -1117 209 -526 207 -1052 587
-1341 968 l-39 53 47 197 c305 1295 550 2002 839 2428 33 50 105 135 160 190
92 93 104 108 157 220 31 66 96 224 144 350 195 512 270 667 421 861 69 89
201 217 218 211 6 -2 23 -44 39 -93z m983 -911 c-3 -269 -9 -539 -12 -600 l-7
-113 -56 48 c-82 71 -296 226 -338 247 -1 0 -20 91 -42 202 -23 110 -43 207
-46 215 -6 15 474 488 496 488 9 0 10 -115 5 -487z"/>
<path d="M3572 3764 c-13 -25 -62 -181 -62 -198 0 -9 23 -15 75 -19 92 -7 194
-38 302 -93 l82 -42 160 47 c89 25 161 49 161 53 0 13 -188 138 -267 178 -126
63 -194 81 -324 87 -107 5 -118 4 -127 -13z"/>
<path d="M13078 6550 c-57 -10 -141 -37 -182 -58 -56 -28 -133 -110 -160 -171
-38 -86 -46 -143 -46 -341 l0 -177 -62 -17 c-35 -9 -93 -26 -130 -37 l-68 -20
0 -99 0 -100 130 0 130 0 0 -585 0 -585 160 0 160 0 0 585 0 585 205 0 205 0
0 135 0 135 -202 2 -203 3 -3 129 c-4 205 18 269 112 319 35 19 57 22 156 22
63 0 136 -4 163 -9 l47 -8 0 135 0 136 -37 12 c-47 14 -312 21 -375 9z"/>
<path d="M7815 6508 c3 -13 91 -484 195 -1048 104 -564 195 -1049 201 -1077
l10 -53 198 0 197 0 195 895 c107 492 196 895 199 895 3 0 92 -403 199 -895
l195 -895 197 0 198 0 10 53 c6 28 97 513 201 1077 104 564 192 1035 195 1048
l5 22 -172 0 -173 0 -139 -837 c-76 -461 -142 -841 -145 -845 -3 -4 -87 372
-187 835 l-181 842 -203 0 -203 0 -181 -842 c-99 -463 -183 -839 -186 -836 -3
2 -68 381 -145 841 l-140 837 -173 3 -173 2 6 -22z"/>
<path d="M11832 5553 l3 -978 26 -55 c56 -120 144 -171 306 -178 l103 -5 0
137 0 136 -29 0 c-43 0 -60 9 -76 41 -13 24 -15 161 -15 954 l0 925 -160 0
-160 0 2 -977z"/>
<path d="M10785 5830 c-260 -41 -410 -188 -468 -458 -30 -140 -30 -444 0 -584
52 -239 167 -373 376 -436 72 -22 101 -25 237 -25 172 0 265 18 363 70 204
109 302 375 282 765 -19 385 -146 581 -420 653 -73 19 -287 28 -370 15z m278
-281 c46 -13 112 -70 136 -118 38 -74 46 -139 46 -351 0 -264 -15 -331 -93
-412 -47 -49 -115 -72 -217 -72 -170 0 -256 65 -296 224 -19 76 -19 444 0 520
35 138 96 197 231 224 35 6 148 -2 193 -15z"/>
<path d="M14145 5826 c-102 -21 -214 -66 -286 -117 l-25 -18 -27 55 -27 54
-95 0 -95 0 0 -720 0 -720 160 0 160 0 2 558 3 557 45 22 c90 45 165 58 328
58 l152 0 0 132 c0 77 -4 134 -10 138 -22 14 -217 14 -285 1z"/>
<path d="M15000 5834 c-97 -13 -212 -35 -273 -54 l-67 -21 0 -141 0 -140 23 7
c185 58 242 68 402 69 152 1 163 0 209 -24 75 -37 90 -65 95 -166 l3 -84 -25
0 c-72 0 -391 -33 -452 -47 -144 -32 -263 -109 -320 -208 -52 -88 -69 -250
-40 -374 37 -157 135 -257 300 -307 81 -25 265 -25 355 -1 77 21 181 68 227
103 17 13 34 24 36 24 3 0 15 -25 27 -55 l22 -55 99 0 99 0 0 503 c0 276 -5
536 -10 577 -14 108 -45 183 -101 244 -93 102 -219 145 -439 151 -74 2 -151 1
-170 -1z m390 -964 l0 -189 -42 -25 c-78 -45 -145 -61 -253 -61 -123 0 -167
18 -205 86 -21 37 -25 57 -25 124 0 58 5 89 18 113 22 41 95 88 150 98 43 7
308 41 340 43 16 1 17 -14 17 -189z"/>
<path d="M16580 5825 c-100 -21 -211 -66 -283 -117 l-27 -20 -25 56 -25 56
-95 0 -95 0 0 -720 0 -720 160 0 160 0 0 560 0 560 48 24 c81 41 166 58 269
54 99 -3 124 -14 167 -72 21 -27 21 -40 24 -577 l2 -549 160 0 160 0 0 561 0
560 56 26 c85 38 150 53 244 53 69 0 94 -4 130 -22 83 -43 80 -19 80 -635 l0
-543 165 0 165 0 0 533 c0 566 -4 624 -47 720 -34 75 -121 157 -198 186 -179
67 -409 47 -609 -54 l-90 -45 -35 34 c-92 90 -283 127 -461 91z"/>
<path d="M7810 2545 l0 -1085 635 0 635 0 0 150 0 150 -475 0 -475 0 0 935 0
935 -160 0 -160 0 0 -1085z"/>
<path d="M19180 3195 c0 -23 3 -25 50 -25 l50 0 0 -130 0 -130 30 0 30 0 0
130 0 130 45 0 c41 0 45 2 45 25 l0 25 -125 0 -125 0 0 -25z"/>
<path d="M19510 3066 l0 -156 30 0 29 0 3 113 3 112 40 -110 c36 -99 43 -110
67 -113 28 -3 23 -14 89 168 l24 65 3 -117 3 -118 29 0 30 0 0 155 0 155 -48
0 -47 0 -41 -106 -40 -106 -40 103 -40 104 -47 3 -47 3 0 -155z"/>
<path d="M9480 2920 c-58 -11 -130 -28 -160 -38 l-55 -19 -3 -143 c-2 -133 -1
-142 15 -135 161 66 447 99 581 66 97 -24 142 -95 142 -221 0 -38 -1 -39 -42
-44 -24 -3 -106 -11 -183 -16 -183 -14 -255 -26 -339 -55 -181 -63 -276 -187
-292 -381 -12 -146 27 -272 113 -364 97 -105 215 -145 408 -138 141 6 249 37
346 100 33 21 62 38 64 38 3 0 16 -25 30 -55 l24 -55 95 0 96 0 0 523 c0 536
-4 604 -41 702 -44 118 -170 209 -332 240 -110 21 -334 18 -467 -5z m520 -945
l0 -184 -43 -26 c-83 -48 -155 -67 -257 -68 -84 -1 -100 1 -140 23 -65 37 -94
94 -94 185 0 41 7 85 16 107 21 48 86 94 151 107 64 14 267 38 325 40 l42 1 0
-185z"/>
<path d="M11175 2925 c-84 -19 -138 -39 -223 -85 -40 -22 -75 -40 -78 -40 -2
0 -15 25 -29 55 l-24 55 -95 0 -96 0 0 -725 0 -725 160 0 160 0 0 559 0 560
23 16 c12 8 58 27 102 42 106 34 278 39 338 9 54 -27 86 -73 97 -142 6 -33 10
-281 10 -551 l0 -493 160 0 160 0 0 548 c0 582 -4 631 -50 721 -73 143 -217
212 -444 210 -61 0 -138 -7 -171 -14z"/>
<path d="M12495 2925 c-178 -39 -287 -120 -351 -258 -73 -161 -68 -415 12
-574 27 -52 133 -163 156 -163 6 0 -8 -20 -30 -44 -63 -68 -86 -120 -86 -196
0 -74 22 -126 73 -174 l31 -29 -73 -35 c-145 -71 -219 -183 -219 -332 0 -202
135 -336 397 -392 130 -28 392 -30 535 -4 316 57 501 199 540 416 33 182 -38
358 -172 426 -71 36 -144 50 -468 89 -323 39 -342 44 -348 103 -2 17 3 44 11
59 l15 28 164 1 c182 2 267 18 376 73 157 79 242 245 242 470 0 85 -16 195
-35 242 -6 16 2 19 153 59 l42 11 0 104 0 105 -248 0 c-180 0 -266 4 -317 15
-87 18 -316 18 -400 0z m338 -257 c21 -7 58 -29 82 -50 62 -55 78 -109 73
-247 -3 -99 -6 -112 -33 -157 -24 -37 -45 -56 -90 -79 -54 -28 -66 -30 -164
-30 -120 0 -166 12 -217 58 -57 49 -77 99 -82 203 -9 191 55 286 210 313 60
11 164 5 221 -11z m22 -1284 c221 -28 274 -45 299 -93 20 -37 21 -123 2 -159
-53 -101 -190 -157 -406 -168 -292 -15 -431 54 -433 214 0 67 17 106 69 152
59 52 171 92 234 84 19 -2 125 -16 235 -30z"/>
<path d="M15410 2920 c-58 -11 -130 -28 -160 -38 l-55 -19 -3 -141 -3 -141 43
15 c145 52 365 80 492 64 146 -18 196 -69 196 -197 l0 -72 -32 -5 c-18 -3 -98
-10 -178 -16 -186 -14 -259 -26 -343 -55 -159 -55 -246 -147 -282 -297 -41
-174 3 -354 114 -464 93 -92 218 -130 403 -122 133 6 235 36 336 99 35 21 65
39 67 39 2 0 15 -25 29 -55 l25 -55 95 0 96 0 0 523 c-1 582 -5 632 -61 736
-58 109 -161 177 -313 206 -109 21 -333 18 -466 -5z m510 -949 l0 -190 -62
-30 c-167 -82 -362 -74 -427 17 -29 42 -44 113 -37 176 12 95 71 155 169 175
61 13 265 38 320 40 l37 1 0 -189z"/>
<path d="M16900 2924 c-36 -8 -96 -29 -135 -48 -179 -85 -259 -236 -259 -486
0 -132 18 -212 65 -301 29 -54 100 -132 142 -155 16 -9 13 -15 -24 -54 -23
-24 -51 -64 -61 -88 -41 -93 -18 -217 52 -275 18 -15 31 -29 29 -30 -2 -2 -34
-18 -71 -36 -81 -39 -155 -108 -188 -176 -22 -43 -25 -64 -25 -155 0 -91 3
-112 25 -155 36 -73 108 -140 194 -181 139 -66 365 -95 585 -74 472 44 712
258 663 592 -19 132 -71 212 -171 262 -75 38 -146 52 -465 91 -164 20 -307 40
-317 46 -39 20 -50 74 -24 119 13 25 14 25 172 26 113 1 180 6 233 18 206 49
330 166 375 358 26 110 16 316 -20 409 -5 13 11 20 82 39 132 34 124 25 121
138 l-3 97 -275 6 c-151 3 -295 11 -320 17 -63 16 -302 13 -380 -4z m351 -259
c64 -23 96 -51 125 -112 25 -51 28 -67 28 -157 -1 -109 -22 -182 -67 -225 -66
-61 -219 -87 -337 -57 -122 31 -178 104 -187 243 -13 191 54 295 209 322 65
12 175 5 229 -14z m19 -1281 c259 -33 292 -47 311 -134 20 -88 -23 -167 -119
-218 -96 -51 -175 -66 -357 -66 -184 -1 -251 14 -311 67 -46 39 -64 82 -64
147 0 68 19 109 71 153 52 45 176 89 229 82 19 -3 127 -16 240 -31z"/>
<path d="M18495 2926 c-286 -66 -427 -259 -454 -624 -31 -407 80 -695 311
-806 115 -55 211 -70 408 -63 166 6 249 19 373 58 l67 22 0 139 c0 112 -3 139
-13 135 -146 -56 -306 -81 -475 -75 -111 4 -124 6 -186 37 -101 49 -143 119
-161 265 l-7 56 450 0 450 0 6 31 c9 47 7 174 -4 290 -31 300 -134 453 -357
525 -67 22 -327 28 -408 10z m288 -277 c54 -15 112 -71 132 -127 9 -26 19 -89
22 -139 l6 -93 -292 0 -292 0 7 58 c18 154 78 253 177 291 59 23 178 28 240
10z"/>
<path d="M13652 2338 c3 -560 4 -574 26 -638 41 -122 131 -207 262 -248 42
-13 91 -17 205 -17 175 0 242 16 384 91 46 24 85 44 88 44 2 0 15 -25 29 -55
l25 -55 95 0 94 0 0 725 0 725 -160 0 -160 0 0 -559 0 -560 -22 -16 c-13 -8
-59 -27 -103 -42 -65 -21 -101 -26 -190 -27 -100 -1 -114 1 -155 24 -32 18
-52 38 -67 70 -23 44 -23 44 -23 577 l0 533 -166 0 -165 0 3 -572z"/>
</g>
</svg>
