<svg xmlns="http://www.w3.org/2000/svg" viewBox="0 0 485.21 116.13"><defs><style>.cls-1{fill:#0086f8;}.cls-2{fill:#ff8300;}.cls-3{fill:#51c21a;}.cls-4{fill:#333f48;}</style></defs><title>Asset 1</title><g id="Layer_2" data-name="Layer 2"><g id="Layer_1-2" data-name="Layer 1"><path class="cls-1" d="M102.55,72a36.87,36.87,0,0,0-12-10.91c-6.31-3.72-15.2-3.36-15.2-3.36a11.77,11.77,0,0,1-15.76,5.91c-6.89,9-6.22,16.51-6.16,17,.39,11.57,11.58,35.43,56.35,35.5.13-.94,3.84-29.56-7.28-44.14"/><path class="cls-2" d="M66.3,11.46C53.84-.68,30.83-5.17,1.27,8c.08.33,8.9,37.83,48.54,43.79h.1c.88.05,1.9.14,3,.26h0A11.75,11.75,0,0,1,64.64,41.24a12.71,12.71,0,0,1,3.92.63C80,24.5,67.69,12.71,66.3,11.46Z"/><path class="cls-3" d="M59.64,63.63h0A11.75,11.75,0,0,1,52.87,53c0-.29,0-.63.05-.95a51.05,51.05,0,0,0-6.1-.35,49.84,49.84,0,0,0-28.74,9.76C1.46,74.45,0,95.78,0,95.78c.88.11,30.3,4,48.16-13.67A35.91,35.91,0,0,0,53.05,76s.47-.74,1.24-2h0a30.92,30.92,0,0,1,5.35-10.35Z"/><path class="cls-4" d="M253.16,27.4c-8.69,0-16,3.67-20.46,9.54V34.06A6.71,6.71,0,0,0,226,27.4h0a6.71,6.71,0,0,0-6.7,6.66v75.29a6.82,6.82,0,0,0,6.81,6.78h0a6.82,6.82,0,0,0,6.81-6.78V82.85a27.28,27.28,0,0,0,20.49,8.83c15.21,0,30-11.29,30-32.26C283.46,38.07,267.64,27.4,253.16,27.4Zm-1.47,51.89c-9.32,0-18.77-6.75-18.77-20.12,0-13.13,9.32-19.63,18.65-19.63S270,45.92,270,59.29,261,79.29,251.69,79.29Z"/><path class="cls-4" d="M175.27,91.68c8.7,0,16-3.67,20.47-9.54V85a6.71,6.71,0,0,0,6.69,6.67h0a6.71,6.71,0,0,0,6.7-6.67V9.72A6.82,6.82,0,0,0,202.32,3h0a6.82,6.82,0,0,0-6.81,6.77V36.23A27.24,27.24,0,0,0,175,27.4C159.82,27.4,145,38.68,145,59.66,145,81,160.8,91.68,175.27,91.68Zm1.48-51.89c9.32,0,18.76,6.74,18.76,20.12,0,13.12-9.32,19.62-18.64,19.62s-18.4-6.38-18.4-19.75S167.42,39.79,176.75,39.79Z"/><path class="cls-4" d="M130.2,0a9.48,9.48,0,0,0-9.69,9.69,9.48,9.48,0,0,0,9.69,9.69A9.58,9.58,0,0,0,140,9.69,9.58,9.58,0,0,0,130.2,0Z"/><path class="cls-4" d="M130.2,27.4h0a6.82,6.82,0,0,0-6.81,6.78V85.13h0a6.82,6.82,0,0,0,6.8,6.55h0A6.82,6.82,0,0,0,137,85.13h0v-.22h0V34.18A6.82,6.82,0,0,0,130.2,27.4Z"/><path class="cls-4" d="M308.63,28.06h2.68V44.38h-2.68Z"/><path class="cls-4" d="M315,28.06h2.68l8.18,11.54V28.06h2.68V44.38h-2.68l-8.18-11.45V44.38H315Z"/><path class="cls-4" d="M338.46,44.38h-2.68V30.5h-5.34V28.06H343.8V30.5h-5.34Z"/><path class="cls-4" d="M348.73,30.5V35h5.53v2.45h-5.53v4.48h7.11v2.45h-9.79V28.06h9.61V30.5Z"/><path class="cls-4" d="M367.52,44.38l-3.73-6.74h-2.17v6.74h-2.68V28.06h5.8a4.61,4.61,0,0,1,4.92,4.63,4.77,4.77,0,0,1-3,4.48l4.15,7.21Zm-.58-11.57a2.39,2.39,0,0,0-2.62-2.31h-2.7v4.69h2.7A2.41,2.41,0,0,0,366.94,32.81Z"/><path class="cls-4" d="M373.45,28.06h2.68l8.18,11.54V28.06H387V44.38h-2.68l-8.18-11.45V44.38h-2.68Z"/><path class="cls-4" d="M393.53,40.25,392,44.38h-2.94l6.39-16.32h2.63l6.35,16.32h-2.94L400,40.25Zm3.22-8.7-2.31,6.25h4.64Z"/><path class="cls-4" d="M410.71,44.38H408V30.5h-5.34V28.06h13.36V30.5h-5.34Z"/><path class="cls-4" d="M417.76,28.06h2.68V44.38h-2.68Z"/><path class="cls-4" d="M440.19,36.22a8.44,8.44,0,1,1-16.88,0,8.44,8.44,0,1,1,16.88,0Zm-14.15,0a5.72,5.72,0,1,0,11.42,0,5.72,5.72,0,1,0-11.42,0Z"/><path class="cls-4" d="M442.78,28.06h2.69l8.18,11.54V28.06h2.68V44.38h-2.68l-8.18-11.45V44.38h-2.69Z"/><path class="cls-4" d="M462.78,40.25l-1.51,4.13h-2.94l6.39-16.32h2.63l6.35,16.32h-2.94l-1.54-4.13Zm3.22-8.7-2.31,6.25h4.64Z"/><path class="cls-4" d="M478.38,28.06V41.93h6.83v2.45H475.7V28.06Z"/><path class="cls-4" d="M311.31,53.83v4.5h5.52v2.44h-5.52v4.48h7.11V67.7h-9.79V51.38h9.6v2.45Z"/><path class="cls-4" d="M321,51.38h5.69c5.43,0,8.26,3.89,8.26,8s-2.78,8.35-8.65,8.35H321Zm2.68,2.45V65.25h2.85a5.71,5.71,0,0,0,.14-11.42Z"/><path class="cls-4" d="M337.6,62V51.38h2.68V61.47c0,2.78,1.77,4,3.64,4s3.61-1.19,3.61-4V51.38h2.68V62c0,4.12-3.17,6.08-6.29,6.08S337.6,66.09,337.6,62Z"/><path class="cls-4" d="M361,68.07c-4.16,0-8.07-3-8.07-8.44a8.57,8.57,0,0,1,14.9-5.83l-1.82,2a5.81,5.81,0,0,0-4.67-2.21c-3,0-5.68,2-5.68,6s2.65,6,5.57,6a5.68,5.68,0,0,0,5.29-3.71L368.66,63A8.23,8.23,0,0,1,361,68.07Z"/><path class="cls-4" d="M373.69,63.57l-1.51,4.13h-2.94l6.39-16.32h2.63L384.6,67.7h-2.93l-1.54-4.13Zm3.22-8.7-2.31,6.25h4.64Z"/><path class="cls-4" d="M391.18,67.7H388.5V53.83h-5.34V51.38h13.36v2.45h-5.34Z"/><path class="cls-4" d="M398.6,51.38h2.68V67.7H398.6Z"/><path class="cls-4" d="M421.31,59.54A8.44,8.44,0,1,1,412.87,51,8.34,8.34,0,0,1,421.31,59.54Zm-14.15,0a5.72,5.72,0,1,0,5.71-6A5.74,5.74,0,0,0,407.16,59.54Z"/><path class="cls-4" d="M424.19,51.38h2.68l8.19,11.54V51.38h2.68V67.7h-2.68l-8.19-11.45V67.7h-2.68Z"/><path class="cls-4" d="M313.78,76.63a2.32,2.32,0,0,0-2.59,2.31c0,1.7,1.49,2.33,3.24,2.92,2.43.81,5,1.56,5,4.68s-2.75,4.85-5.76,4.85A8.37,8.37,0,0,1,307.81,89l1.77-2.13A5.46,5.46,0,0,0,313.82,89c1.52,0,2.87-.66,2.87-2.1s-1.51-2-3.26-2.66c-2.12-.77-4.87-1.73-4.87-5.08s2.79-4.78,5.4-4.78a6.67,6.67,0,0,1,4.64,1.86l-1.44,1.87A4.92,4.92,0,0,0,313.78,76.63Z"/><path class="cls-4" d="M332.84,79.43a4.79,4.79,0,0,1-5,4.85h-3V91h-2.68V74.7H328A4.64,4.64,0,0,1,332.84,79.43Zm-5.31,2.43a2.46,2.46,0,0,0,2.61-2.45,2.29,2.29,0,0,0-2.57-2.26h-2.75v4.71Z"/><path class="cls-4" d="M337.82,77.15v4.5h5.53V84.1h-5.53v4.47h7.11V91h-9.79V74.7h9.61v2.45Z"/><path class="cls-4" d="M354.9,91.39c-4.15,0-8.07-3-8.07-8.44a8.57,8.57,0,0,1,14.9-5.83l-1.82,2a5.79,5.79,0,0,0-4.66-2.21c-3,0-5.69,2-5.69,6s2.66,6,5.57,6a5.65,5.65,0,0,0,5.29-3.71l2.15,1.17A8.23,8.23,0,0,1,354.9,91.39Z"/><path class="cls-4" d="M364.75,74.7h2.68V91h-2.68Z"/><path class="cls-4" d="M374.5,86.89,373,91H370l6.39-16.32h2.64L385.41,91h-2.94l-1.54-4.13Zm3.22-8.69-2.31,6.25h4.64Z"/><path class="cls-4" d="M390.2,74.7V88.57H397V91h-9.52V74.7Z"/><path class="cls-4" d="M399.62,74.7h2.68V91h-2.68Z"/><path class="cls-4" d="M410.9,76.63a2.32,2.32,0,0,0-2.58,2.31c0,1.7,1.49,2.33,3.24,2.92,2.42.81,5,1.56,5,4.68s-2.75,4.85-5.76,4.85A8.36,8.36,0,0,1,404.94,89l1.77-2.13A5.45,5.45,0,0,0,411,89c1.52,0,2.87-.66,2.87-2.1s-1.52-2-3.26-2.66c-2.13-.77-4.88-1.73-4.88-5.08s2.8-4.78,5.41-4.78a6.67,6.67,0,0,1,4.64,1.86l-1.44,1.87A4.94,4.94,0,0,0,410.9,76.63Z"/><path class="cls-4" d="M424.9,91h-2.68V77.15h-5.34V74.7h13.36v2.45H424.9Z"/><path class="cls-4" d="M436.47,76.63a2.32,2.32,0,0,0-2.59,2.31c0,1.7,1.49,2.33,3.24,2.92,2.43.81,5,1.56,5,4.68s-2.75,4.85-5.75,4.85A8.38,8.38,0,0,1,430.5,89l1.77-2.13A5.47,5.47,0,0,0,436.52,89c1.51,0,2.86-.66,2.86-2.1s-1.51-2-3.26-2.66c-2.12-.77-4.87-1.73-4.87-5.08s2.79-4.78,5.41-4.78a6.66,6.66,0,0,1,4.63,1.86l-1.44,1.87A4.92,4.92,0,0,0,436.47,76.63Z"/></g></g></svg>