<svg width="339" height="92" viewBox="0 0 339 92" fill="none" xmlns="http://www.w3.org/2000/svg">
<g clip-path="url(#clip0_616_50)">
<mask id="mask0_616_50" style="mask-type:luminance" maskUnits="userSpaceOnUse" x="0" y="0" width="92" height="92">
<path d="M92 0H0V92H92V0Z" fill="white"/>
</mask>
<g mask="url(#mask0_616_50)">
<path d="M60.2696 2.0166H31.7731L8.71933 18.768L-0.0844727 45.8677L8.71933 72.9707L31.7731 89.7188H60.2696L83.3233 72.9707L92.1305 45.8677L83.3233 18.768L60.2696 2.0166Z" fill="black"/>
<path d="M59.0943 5.63574H32.9516L11.7983 21.0037L3.71973 45.8673L11.7983 70.7308L32.9516 86.0988H59.0943L80.2443 70.7308L88.3228 45.8673L80.2443 21.0037L59.0943 5.63574Z" stroke="#DA9D01" stroke-width="1.05143" stroke-miterlimit="10"/>
<path d="M29.6269 16.3818L62.4582 16.5396L62.6966 58.094C62.5657 59.8367 62.1426 62.5698 60.6887 65.5481C59.7787 67.4149 58.0832 70.7726 54.2386 73.1096C49.4204 76.0374 44.5048 75.3457 43.1886 75.1174C37.5242 74.1302 34.2941 70.4636 33.3036 69.3019C32.3366 68.1671 28.942 64.1916 29.3919 59.098C29.4994 57.8691 29.7781 54.7196 31.9303 53.8634C33.3339 53.306 35.3786 53.7829 36.3725 55.2903C37.1313 56.4421 37.4873 58.5071 36.161 59.5714C35.0899 60.4343 33.3036 60.3302 32.0915 59.1483C32.0882 59.8367 32.1486 62.7747 34.3646 64.806C36.6713 66.9214 39.7369 66.6091 41.2982 66.448C42.2786 66.3472 44.273 66.1189 46.2104 64.7322C49.7595 62.1903 50.149 57.8758 50.2027 57.1472C50.4882 53.0877 50.337 49.7066 50.1187 47.2555C49.7764 43.3808 49.5648 40.9029 48.3225 37.7902C47.5435 35.836 46.3078 32.8444 43.353 30.1247C40.3479 27.3614 37.1515 26.3373 35.3686 25.79C33.0887 25.0882 31.101 24.8599 29.7109 24.786L29.6269 16.3818Z" fill="url(#paint0_radial_616_50)"/>
<path d="M40.7954 43.1308C42.0433 43.1308 43.0551 42.119 43.0551 40.871C43.0551 39.6231 42.0433 38.6113 40.7954 38.6113C39.5474 38.6113 38.5356 39.6231 38.5356 40.871C38.5356 42.119 39.5474 43.1308 40.7954 43.1308Z" fill="#DA9D01"/>
</g>
</g>
<path d="M119.32 34.834V50.608C119.32 53.05 118.627 54.931 117.241 56.251C115.877 57.571 114.029 58.231 111.697 58.231C109.255 58.231 107.297 57.538 105.823 56.152C104.349 54.766 103.612 52.797 103.612 50.245H109.222C109.222 51.213 109.42 51.95 109.816 52.456C110.212 52.94 110.784 53.182 111.532 53.182C112.214 53.182 112.742 52.962 113.116 52.522C113.49 52.082 113.677 51.444 113.677 50.608V34.834H119.32ZM143.711 39.586V58H138.068V55.492C137.496 56.306 136.715 56.966 135.725 57.472C134.757 57.956 133.679 58.198 132.491 58.198C131.083 58.198 129.84 57.89 128.762 57.274C127.684 56.636 126.848 55.723 126.254 54.535C125.66 53.347 125.363 51.95 125.363 50.344V39.586H130.973V49.585C130.973 50.817 131.292 51.774 131.93 52.456C132.568 53.138 133.426 53.479 134.504 53.479C135.604 53.479 136.473 53.138 137.111 52.456C137.749 51.774 138.068 50.817 138.068 49.585V39.586H143.711ZM172.91 39.388C175.198 39.388 177.013 40.081 178.355 41.467C179.719 42.853 180.401 44.778 180.401 47.242V58H174.791V48.001C174.791 46.813 174.472 45.9 173.834 45.262C173.218 44.602 172.36 44.272 171.26 44.272C170.16 44.272 169.291 44.602 168.653 45.262C168.037 45.9 167.729 46.813 167.729 48.001V58H162.119V48.001C162.119 46.813 161.8 45.9 161.162 45.262C160.546 44.602 159.688 44.272 158.588 44.272C157.488 44.272 156.619 44.602 155.981 45.262C155.365 45.9 155.057 46.813 155.057 48.001V58H149.414V39.586H155.057V41.896C155.629 41.126 156.377 40.521 157.301 40.081C158.225 39.619 159.27 39.388 160.436 39.388C161.822 39.388 163.054 39.685 164.132 40.279C165.232 40.873 166.09 41.72 166.706 42.82C167.344 41.808 168.213 40.983 169.313 40.345C170.413 39.707 171.612 39.388 172.91 39.388ZM191.641 42.193C192.169 41.335 192.928 40.642 193.918 40.114C194.908 39.586 196.041 39.322 197.317 39.322C198.835 39.322 200.21 39.707 201.442 40.477C202.674 41.247 203.642 42.347 204.346 43.777C205.072 45.207 205.435 46.868 205.435 48.76C205.435 50.652 205.072 52.324 204.346 53.776C203.642 55.206 202.674 56.317 201.442 57.109C200.21 57.879 198.835 58.264 197.317 58.264C196.019 58.264 194.886 58.011 193.918 57.505C192.95 56.977 192.191 56.284 191.641 55.426V58H185.998V33.58H191.641V42.193ZM199.693 48.76C199.693 47.352 199.297 46.252 198.505 45.46C197.735 44.646 196.778 44.239 195.634 44.239C194.512 44.239 193.555 44.646 192.763 45.46C191.993 46.274 191.608 47.385 191.608 48.793C191.608 50.201 191.993 51.312 192.763 52.126C193.555 52.94 194.512 53.347 195.634 53.347C196.756 53.347 197.713 52.94 198.505 52.126C199.297 51.29 199.693 50.168 199.693 48.76ZM218.427 58.264C216.623 58.264 214.995 57.879 213.543 57.109C212.113 56.339 210.98 55.239 210.144 53.809C209.33 52.379 208.923 50.707 208.923 48.793C208.923 46.901 209.341 45.24 210.177 43.81C211.013 42.358 212.157 41.247 213.609 40.477C215.061 39.707 216.689 39.322 218.493 39.322C220.297 39.322 221.925 39.707 223.377 40.477C224.829 41.247 225.973 42.358 226.809 43.81C227.645 45.24 228.063 46.901 228.063 48.793C228.063 50.685 227.634 52.357 226.776 53.809C225.94 55.239 224.785 56.339 223.311 57.109C221.859 57.879 220.231 58.264 218.427 58.264ZM218.427 53.38C219.505 53.38 220.418 52.984 221.166 52.192C221.936 51.4 222.321 50.267 222.321 48.793C222.321 47.319 221.947 46.186 221.199 45.394C220.473 44.602 219.571 44.206 218.493 44.206C217.393 44.206 216.48 44.602 215.754 45.394C215.028 46.164 214.665 47.297 214.665 48.793C214.665 50.267 215.017 51.4 215.721 52.192C216.447 52.984 217.349 53.38 218.427 53.38ZM231.75 46.384C231.75 44.096 232.245 42.061 233.235 40.279C234.225 38.475 235.6 37.078 237.36 36.088C239.142 35.076 241.155 34.57 243.399 34.57C246.149 34.57 248.503 35.296 250.461 36.748C252.419 38.2 253.728 40.18 254.388 42.688H248.184C247.722 41.72 247.062 40.983 246.204 40.477C245.368 39.971 244.411 39.718 243.333 39.718C241.595 39.718 240.187 40.323 239.109 41.533C238.031 42.743 237.492 44.36 237.492 46.384C237.492 48.408 238.031 50.025 239.109 51.235C240.187 52.445 241.595 53.05 243.333 53.05C244.411 53.05 245.368 52.797 246.204 52.291C247.062 51.785 247.722 51.048 248.184 50.08H254.388C253.728 52.588 252.419 54.568 250.461 56.02C248.503 57.45 246.149 58.165 243.399 58.165C241.155 58.165 239.142 57.67 237.36 56.68C235.6 55.668 234.225 54.271 233.235 52.489C232.245 50.707 231.75 48.672 231.75 46.384ZM270.812 39.388C272.924 39.388 274.618 40.092 275.894 41.5C277.17 42.886 277.808 44.8 277.808 47.242V58H272.198V48.001C272.198 46.769 271.879 45.812 271.241 45.13C270.603 44.448 269.745 44.107 268.667 44.107C267.589 44.107 266.731 44.448 266.093 45.13C265.455 45.812 265.136 46.769 265.136 48.001V58H259.493V33.58H265.136V42.061C265.708 41.247 266.489 40.598 267.479 40.114C268.469 39.63 269.58 39.388 270.812 39.388ZM282.258 48.76C282.258 46.868 282.61 45.207 283.314 43.777C284.04 42.347 285.019 41.247 286.251 40.477C287.483 39.707 288.858 39.322 290.376 39.322C291.674 39.322 292.807 39.586 293.775 40.114C294.765 40.642 295.524 41.335 296.052 42.193V39.586H301.695V58H296.052V55.393C295.502 56.251 294.732 56.944 293.742 57.472C292.774 58 291.641 58.264 290.343 58.264C288.847 58.264 287.483 57.879 286.251 57.109C285.019 56.317 284.04 55.206 283.314 53.776C282.61 52.324 282.258 50.652 282.258 48.76ZM296.052 48.793C296.052 47.385 295.656 46.274 294.864 45.46C294.094 44.646 293.148 44.239 292.026 44.239C290.904 44.239 289.947 44.646 289.155 45.46C288.385 46.252 288 47.352 288 48.76C288 50.168 288.385 51.29 289.155 52.126C289.947 52.94 290.904 53.347 292.026 53.347C293.148 53.347 294.094 52.94 294.864 52.126C295.656 51.312 296.052 50.201 296.052 48.793ZM310.265 37.672C309.275 37.672 308.461 37.386 307.823 36.814C307.207 36.22 306.899 35.494 306.899 34.636C306.899 33.756 307.207 33.03 307.823 32.458C308.461 31.864 309.275 31.567 310.265 31.567C311.233 31.567 312.025 31.864 312.641 32.458C313.279 33.03 313.598 33.756 313.598 34.636C313.598 35.494 313.279 36.22 312.641 36.814C312.025 37.386 311.233 37.672 310.265 37.672ZM313.07 39.586V58H307.427V39.586H313.07ZM330.03 39.388C332.186 39.388 333.902 40.092 335.178 41.5C336.476 42.886 337.125 44.8 337.125 47.242V58H331.515V48.001C331.515 46.769 331.196 45.812 330.558 45.13C329.92 44.448 329.062 44.107 327.984 44.107C326.906 44.107 326.048 44.448 325.41 45.13C324.772 45.812 324.453 46.769 324.453 48.001V58H318.81V39.586H324.453V42.028C325.025 41.214 325.795 40.576 326.763 40.114C327.731 39.63 328.82 39.388 330.03 39.388Z" fill="black"/>
<defs>
<radialGradient id="paint0_radial_616_50" cx="0" cy="0" r="1" gradientUnits="userSpaceOnUse" gradientTransform="translate(46.0217 45.8694) scale(55.2105)">
<stop offset="0.1844" stop-color="#DA9D01"/>
<stop offset="1" stop-color="#FFF4BF"/>
</radialGradient>
<clipPath id="clip0_616_50">
<rect width="92" height="92" fill="white"/>
</clipPath>
</defs>
</svg>
