<svg width="337" height="92" viewBox="0 0 337 92" fill="none" xmlns="http://www.w3.org/2000/svg">
<g clip-path="url(#clip0_616_50)">
<mask id="mask0_616_50" style="mask-type:luminance" maskUnits="userSpaceOnUse" x="0" y="0" width="92" height="92">
<path d="M92 0H0V92H92V0Z" fill="white"/>
</mask>
<g mask="url(#mask0_616_50)">
<path d="M60.2696 2.0166H31.7731L8.71933 18.768L-0.0844727 45.8677L8.71933 72.9707L31.7731 89.7188H60.2696L83.3233 72.9707L92.1305 45.8677L83.3233 18.768L60.2696 2.0166Z" fill="black"/>
<path d="M59.0943 5.63574H32.9516L11.7983 21.0037L3.71973 45.8673L11.7983 70.7308L32.9516 86.0988H59.0943L80.2443 70.7308L88.3228 45.8673L80.2443 21.0037L59.0943 5.63574Z" stroke="#DA9D01" stroke-width="1.05143" stroke-miterlimit="10"/>
<path d="M29.6269 16.3818L62.4582 16.5396L62.6966 58.094C62.5657 59.8367 62.1426 62.5698 60.6887 65.5481C59.7787 67.4149 58.0832 70.7726 54.2386 73.1096C49.4204 76.0374 44.5048 75.3457 43.1886 75.1174C37.5242 74.1302 34.2941 70.4636 33.3036 69.3019C32.3366 68.1671 28.942 64.1916 29.3919 59.098C29.4994 57.8691 29.7781 54.7196 31.9303 53.8634C33.3339 53.306 35.3786 53.7829 36.3725 55.2903C37.1313 56.4421 37.4873 58.5071 36.161 59.5714C35.0899 60.4343 33.3036 60.3302 32.0915 59.1483C32.0882 59.8367 32.1486 62.7747 34.3646 64.806C36.6713 66.9214 39.7369 66.6091 41.2982 66.448C42.2786 66.3472 44.273 66.1189 46.2104 64.7322C49.7595 62.1903 50.149 57.8758 50.2027 57.1472C50.4882 53.0877 50.337 49.7066 50.1187 47.2555C49.7764 43.3808 49.5648 40.9029 48.3225 37.7902C47.5435 35.836 46.3078 32.8444 43.353 30.1247C40.3479 27.3614 37.1515 26.3373 35.3686 25.79C33.0887 25.0882 31.101 24.8599 29.7109 24.786L29.6269 16.3818Z" fill="url(#paint0_radial_616_50)"/>
<path d="M40.7954 43.1308C42.0433 43.1308 43.0551 42.119 43.0551 40.871C43.0551 39.6231 42.0433 38.6113 40.7954 38.6113C39.5474 38.6113 38.5356 39.6231 38.5356 40.871C38.5356 42.119 39.5474 43.1308 40.7954 43.1308Z" fill="#DA9D01"/>
</g>
</g>
<path d="M118.363 48.4578C118.363 51.8967 117.373 54.3847 115.393 55.9218C113.934 57.0421 112.071 57.6022 109.805 57.6022C109.154 57.6022 108.489 57.5632 107.812 57.485L107.226 53.3426C107.825 53.4729 108.398 53.538 108.945 53.538C110.091 53.538 110.951 53.3036 111.524 52.8346C112.384 52.1833 112.814 50.8546 112.814 48.8486V34.9364C112.814 33.4514 112.736 32.3703 112.579 31.6929C112.267 30.4684 111.629 29.6868 110.665 29.3482V28.6838H118.363V48.4578ZM143.703 56H138.661L138.583 53.7334C137.02 55.5311 135.105 56.4299 132.839 56.4299C128.566 56.4299 126.43 53.7725 126.43 48.4578V41.8925C126.43 39.4175 125.791 38.0237 124.515 37.7111V37.1249H131.432V48.8095C131.432 51.3105 132.435 52.5611 134.441 52.5611C136.056 52.5611 137.333 51.7274 138.271 50.06V37.1249H143.273V51.6622C143.273 53.6683 143.416 55.1142 143.703 56ZM178.817 56H173.815V44.0418C173.815 41.7492 172.838 40.6029 170.884 40.6029C169.164 40.6029 167.875 41.5017 167.015 43.2993C167.041 43.4557 167.054 43.7032 167.054 44.0418V56H162.052V44.0418C162.052 41.7492 161.075 40.6029 159.121 40.6029C157.454 40.6029 156.177 41.4757 155.291 43.2212V56H150.289V41.8925C150.289 39.4175 149.651 38.0237 148.374 37.7111V37.1249H154.9L155.018 39.4696C156.268 37.6199 158.17 36.695 160.723 36.695C163.355 36.695 165.191 37.7501 166.233 39.8604C167.823 37.7501 169.907 36.695 172.486 36.695C174.31 36.695 175.769 37.2421 176.863 38.3363C178.165 39.6129 178.817 41.5147 178.817 44.0418V56ZM198.22 46.5038C198.22 44.4457 197.66 42.8695 196.54 41.7753C195.758 41.0197 194.82 40.642 193.726 40.642H193.609C192.28 40.668 191.147 41.15 190.209 42.0879V52.0921C190.938 52.4047 191.798 52.5611 192.788 52.5611C194.403 52.5611 195.706 52.027 196.696 50.9588C197.712 49.8646 198.22 48.3796 198.22 46.5038ZM203.457 46.3475C203.457 49.3436 202.389 51.8055 200.252 53.7334C198.168 55.5571 195.615 56.4689 192.593 56.4689C189.545 56.4689 187.083 55.8697 185.207 54.6713V33.4514C185.207 30.9764 184.569 29.5826 183.292 29.27V28.6838H190.209V38.2582C191.485 37.19 192.997 36.6429 194.742 36.6168H195.211H195.25C197.386 36.6168 199.197 37.3203 200.682 38.7271C202.532 40.5247 203.457 43.0649 203.457 46.3475ZM221.793 46.5429C221.793 44.8234 221.311 43.4166 220.347 42.3224C219.383 41.2282 218.158 40.6811 216.673 40.6811C215.214 40.6811 214.003 41.2282 213.039 42.3224C212.101 43.4166 211.632 44.8234 211.632 46.5429C211.632 48.2624 212.101 49.6692 213.039 50.7634C214.003 51.8576 215.214 52.4047 216.673 52.4047C218.158 52.4047 219.383 51.8576 220.347 50.7634C221.311 49.6692 221.793 48.2624 221.793 46.5429ZM227.029 46.5429C227.029 49.2003 226.156 51.4668 224.411 53.3426C222.457 55.4268 219.865 56.4689 216.634 56.4689C213.716 56.4689 211.267 55.5311 209.287 53.6553C207.333 51.7534 206.356 49.3826 206.356 46.5429C206.356 43.7292 207.333 41.3714 209.287 39.4696C211.267 37.5678 213.729 36.6168 216.673 36.6168C219.695 36.6168 222.17 37.5547 224.098 39.4305C226.052 41.3063 227.029 43.6771 227.029 46.5429ZM254.765 54.4368C252.498 55.8958 249.58 56.6253 246.011 56.6253C241.478 56.6253 237.753 55.2966 234.835 52.6392C231.943 49.9558 230.497 46.5168 230.497 42.3224C230.497 38.1279 231.943 34.702 234.835 32.0446C237.753 29.3872 241.478 28.0586 246.011 28.0586C249.58 28.0586 252.498 28.788 254.765 30.247V35.5226C252.264 33.4384 249.346 32.3963 246.011 32.3963C243.198 32.3963 240.905 33.3342 239.133 35.21C237.388 37.0858 236.515 39.4566 236.515 42.3224C236.515 45.1882 237.388 47.572 239.133 49.4738C240.905 51.3496 243.198 52.2875 246.011 52.2875C249.346 52.2875 252.264 51.2454 254.765 49.1612V54.4368ZM277.909 56H272.907V43.9637C272.907 41.6971 271.878 40.5638 269.82 40.5638C268.048 40.5638 266.706 41.4366 265.795 43.1821V56H260.793V33.4514C260.793 30.9764 260.154 29.5826 258.878 29.27V28.6838H265.795V39.0007C267.071 37.4375 268.895 36.6559 271.266 36.6559C273.194 36.6559 274.731 37.203 275.877 38.2972C277.232 39.5738 277.909 41.4757 277.909 44.0028V56ZM293.02 51.5841V47.1682C289.555 47.6371 287.836 48.8095 287.862 50.6853V50.7634C287.862 51.3626 288.096 51.8576 288.565 52.2484C289.06 52.6392 289.686 52.8346 290.441 52.8346H290.558C291.575 52.8346 292.395 52.4178 293.02 51.5841ZM300.328 52.4047L300.289 55.4138C299.169 56.0651 298.023 56.3908 296.85 56.3908H296.811L296.577 56.3517C295.04 56.3517 294.05 55.7004 293.607 54.3978C292.434 55.7264 290.871 56.3908 288.917 56.3908C287.302 56.3908 285.947 55.9609 284.853 55.1012C283.681 54.1633 283.094 52.8997 283.094 51.3105C283.094 48.3666 285.1 46.2824 289.113 45.0579C290.103 44.7453 291.418 44.4587 293.06 44.1982V43.6511C293.06 41.6711 292.135 40.6811 290.285 40.6811C287.914 40.6811 285.908 41.6189 284.267 43.4947V39.1179C284.944 38.4145 285.921 37.8413 287.198 37.3984C288.5 36.9295 289.764 36.695 290.988 36.695C293.281 36.695 295.026 37.2942 296.225 38.4926C297.449 39.665 298.062 41.2021 298.062 43.1039V51.9749C298.062 52.6001 298.335 52.9128 298.882 52.9128C299.325 52.9128 299.807 52.7434 300.328 52.4047ZM310.088 56H305.086V41.8925C305.086 39.4175 304.448 38.0237 303.171 37.7111V37.1249H310.088V56ZM310.205 31.732C310.205 32.4875 309.932 33.1388 309.385 33.6859C308.838 34.233 308.173 34.5066 307.392 34.5066C306.61 34.5066 305.946 34.233 305.399 33.6859C304.852 33.1388 304.578 32.4875 304.578 31.732C304.578 30.9504 304.852 30.2861 305.399 29.7389C305.946 29.1918 306.61 28.9183 307.392 28.9183C308.173 28.9183 308.838 29.1918 309.385 29.7389C309.932 30.2861 310.205 30.9504 310.205 31.732ZM334.308 56H329.306V44.0418C329.306 41.7492 328.29 40.6029 326.258 40.6029C324.434 40.6029 323.079 41.4757 322.193 43.2212V56H317.191V41.8925C317.191 39.4175 316.553 38.0237 315.277 37.7111V37.1249H321.803L321.881 39.3133C323.262 37.5678 325.19 36.695 327.665 36.695C329.592 36.695 331.13 37.2421 332.276 38.3363C333.631 39.6129 334.308 41.5147 334.308 44.0418V56Z" fill="black"/>
<defs>
<radialGradient id="paint0_radial_616_50" cx="0" cy="0" r="1" gradientUnits="userSpaceOnUse" gradientTransform="translate(46.0217 45.8694) scale(55.2105)">
<stop offset="0.1844" stop-color="#DA9D01"/>
<stop offset="1" stop-color="#FFF4BF"/>
</radialGradient>
<clipPath id="clip0_616_50">
<rect width="92" height="92" fill="white"/>
</clipPath>
</defs>
</svg>
