<?xml version="1.0" encoding="utf-8"?>
<!-- Generator: Adobe Illustrator 22.0.1, SVG Export Plug-In . SVG Version: 6.00 Build 0)  -->
<svg version="1.1" id="Layer_1" xmlns="http://www.w3.org/2000/svg" xmlns:xlink="http://www.w3.org/1999/xlink" x="0px" y="0px"
	 viewBox="0 0 943.4 160.2" style="enable-background:new 0 0 943.4 160.2;" xml:space="preserve">
<style type="text/css">
	.st0{fill:#ECF27C;}
	.st1{display:none;fill:#ECF27C;}
</style>
<title>Asset 1-grey</title>
<g id="Layer_2_1_">
	<g id="Layer_1-2">
		<polygon class="st0" points="60.6,126 43.1,116.3 11.8,54 12.3,99.6 0.5,93.1 0,33.8 17.3,41.8 47,99.5 46.9,55.6 60.6,61.9 		"/>
		<polygon class="st0" points="66.1,125.9 65.9,61.9 80.4,55.2 80.5,80.5 113.9,63.8 113.9,39.6 126.6,33.8 126.7,92.4 114.1,99.4 
			114,75.6 80.6,92.9 80.6,117.9 		"/>
		<path class="st0" d="M63.3,0l60.2,23.5c1.4,0.5,0.8,1.6-0.9,1.6H99.7c-2.1,0-4.1-0.3-6.1-1.1L63.3,11.7L33.1,23.9
			c-1.9,0.7-3.8,1.1-5.9,1.1H4.4c-1.7,0-2.3-1-0.9-1.6L63.3,0z"/>
		<path class="st0" d="M63.3,58.5L2,30.2c-1.2-0.6-0.2-1.6,1.5-1.6h23c2,0,4,0.4,5.9,1.2l30.8,13.6L94,29.8c1.8-0.8,3.8-1.1,5.7-1.1
			h23.1c1.8,0,2.8,1.1,1.5,1.6L63.3,58.5z"/>
		<path class="st0" d="M782.7,41H740c-2.3-0.1-4.6,0.1-6.8,0.7c-2.7,0.8-4.2,2.9-4.7,6.3c-0.3,2.5-0.4,5-0.4,7.5c-0.1,3,0.3,6,1,8.9
			c0.6,2.2,2.3,4,4.6,4.6c2,0.5,4.1,0.7,6.2,0.7h43l0.1,13.7h-45.5c-4.1,0.1-8.2-0.2-12.3-0.9c-5.1-0.9-8.7-3.4-11-7.4
			c-1.2-2.3-1.9-4.7-2.1-7.3c-0.5-4.1-0.8-8.2-0.7-12.3c-0.1-4.7,0.2-9.4,0.8-14c0.4-3.4,2-6.6,4.4-9.1c1.9-2,4.5-3.4,7.2-3.9
			c3.8-0.6,7.6-0.9,11.5-0.8h47.6L782.7,41z"/>
		<polygon class="st0" points="678.7,27.7 708.3,83.3 689.8,83.3 667.9,41.3 653.1,69.5 645.9,83.3 635,83.3 627.2,83.3 657.5,27.7 
					"/>
		<path class="st0" d="M793.8,83.3l-0.2-55.5h16.9l0.2,55.5H793.8z M819.8,48.5l22.7-20.7h23L834,55.2l34.8,28.1h-24.4L819.9,62
			L819.8,48.5z"/>
		<polygon class="st0" points="545.6,83.3 545.4,27.7 562.2,27.7 562.3,50.1 603.9,50.1 603.8,27.7 620.7,27.7 620.9,83.3 604,83.3 
			604,61.1 562.3,61.1 562.4,83.3 		"/>
		<path class="st0" d="M876.8,71.4c0.4,0,21.7,0.1,22.2,0.1c3.9,0.2,9.3,0.2,16.3,0c5.1-0.1,8.4-0.5,9.8-1.2c1.4-0.7,2.2-2.2,2-3.7
			c0-2.4-0.9-3.9-2.8-4.5c-1.8-0.5-3.7-0.7-5.6-0.6h-4.8h-15c-4.1,0-7.6-0.1-10.6-0.4c-4.8-0.4-8.3-1.9-10.3-4.6
			c-1.8-2.4-2.7-6.1-2.7-11.2s0.8-8.8,2.4-11.2c1.3-1.7,3-3.1,5-3.9c3.2-1.3,8.1-2,14.7-2.3c2.6-0.1,6.3-0.2,11.1-0.2
			c2.6,0,29.8,0,31.9,0v11.8c-1,0-26.9,0-28,0c-6.5,0-11.5,0.1-15,0.4c-2.6,0.2-4.2,0.7-4.9,1.6c-0.6,0.8-1,1.9-0.9,2.9
			c0,2.3,1.2,3.7,3.6,4.3c2.2,0.3,4.4,0.4,6.7,0.4h15.4c2.7,0,6.6,0.1,11.6,0.4c5.8,0.3,9.7,1.9,11.8,4.9c1.8,2.6,2.7,6.3,2.7,11.2
			c0,6.1-1.3,10.5-4,13.1c-2,1.9-5.5,3.2-10.4,3.7c-5.2,0.5-12.1,0.8-20.6,0.8c-4.1,0-28.5,0-31.6-0.1L876.8,71.4z"/>
		<polygon class="st0" points="247.4,83.3 225.5,83.3 183.5,41.3 184.2,83.3 167.4,83.3 166.7,27.7 191.2,27.7 230.5,66.3 
			230.4,27.7 247.2,27.7 		"/>
		<polygon class="st0" points="381.2,83.3 381,27.7 397.8,27.7 398,83.3 		"/>
		<polygon class="st0" points="314.3,79.7 304.7,70.8 275,42.3 275.6,83.3 258.9,83.3 258.2,27.7 282.7,27.7 314.2,58.7 345.5,27.7 
			370,27.7 370.2,83.3 353.5,83.3 353.4,42.3 323.8,70.8 		"/>
		<polygon class="st0" points="440.8,83.3 440.6,41.2 439.3,41.2 408.8,41.2 408.8,27.7 489,27.7 489.1,41.2 460.1,41.2 457.3,41.2 
			457.4,83.3 		"/>
		<path class="st1" d="M714,143v8.4h-44.5v-11.1c-0.1-1.9,0.4-3.9,1.3-5.5c1.5-2.1,3.8-3.4,6.3-3.6c1.4-0.2,3.1-0.4,5.1-0.5
			l14.5-1.1c1.6,0,3.1-0.3,4.6-0.7c1.2-0.5,1.9-1.7,1.8-3.7s-0.5-3.1-1.5-3.6c-1.4-0.4-2.9-0.6-4.3-0.6c-1.8,0-3.7,0-5.7,0
			c-2.4,0-22.3,0.1-22.3,0.1v-7.8l22.8-0.1c5.6,0,9.9,0.1,12.9,0.4c3.8,0.4,6.4,1.8,7.6,4.2c0.6,1.2,1,2.4,1.1,3.7
			c0.1,1,0.2,2,0.2,2.9c0.1,2.3-0.2,4.7-0.9,6.9c-0.8,2.1-2.3,3.8-4.3,4.8c-1.6,0.7-4.3,0.5-8.2,0.7l-14.4,1c-1.8,0.1-3,0.3-3.5,0.3
			c-1.7,0.1-3,1.6-2.9,3.4v0.1c0,0.4,0,0.9,0.1,1.4L714,143z"/>
		<path class="st1" d="M818.4,143v8.4h-44.5v-11.1c-0.1-1.9,0.4-3.9,1.3-5.5c1.5-2.1,3.8-3.4,6.3-3.6c1.4-0.2,3.1-0.4,5.1-0.5
			l14.5-1.1c1.6,0,3.1-0.3,4.6-0.7c1.3-0.5,1.9-1.7,1.9-3.7s-0.5-3.1-1.5-3.6c-1.4-0.4-2.9-0.6-4.3-0.6c-1.8,0-3.7,0-5.7,0
			c-2.4,0-22.3,0.1-22.3,0.1v-7.8l22.8-0.1c5.6,0,9.9,0.1,12.9,0.4c3.8,0.4,6.3,1.8,7.6,4.2c0.6,1.2,1,2.4,1.1,3.7
			c0.1,1,0.2,2,0.2,2.9c0.1,2.3-0.2,4.7-0.9,6.9c-0.8,2.1-2.3,3.8-4.3,4.8c-1.6,0.7-4.3,0.5-8.2,0.7l-14.4,1c-1.9,0.1-3,0.3-3.5,0.3
			c-1.7,0.1-3,1.6-2.9,3.4v0.1c0,0.4,0,0.9,0.1,1.4L818.4,143z"/>
		<path class="st1" d="M869.5,143v8.4H825v-11.1c-0.1-1.9,0.4-3.9,1.3-5.5c1.5-2.1,3.8-3.4,6.3-3.6c1.4-0.2,3.1-0.4,5.1-0.5
			l14.5-1.1c1.6,0,3.1-0.3,4.6-0.7c1.3-0.5,1.9-1.7,1.9-3.7s-0.5-3.1-1.5-3.6c-1.4-0.4-2.9-0.6-4.3-0.6c-1.8,0-3.7,0-5.7,0
			c-2.4,0-22.3,0.1-22.3,0.1v-7.8l22.8-0.1c5.6,0,9.9,0.1,12.9,0.4c3.8,0.4,6.3,1.8,7.6,4.2c0.6,1.2,1,2.4,1.1,3.7
			c0.1,1,0.2,2,0.2,2.9c0.1,2.3-0.2,4.7-0.9,6.9c-0.8,2.1-2.3,3.8-4.3,4.8c-1.6,0.7-4.3,0.5-8.2,0.7l-14.4,1c-1.9,0.1-3,0.3-3.5,0.3
			c-1.7,0.1-3,1.6-2.9,3.4v0.1c0,0.4,0,0.9,0.1,1.4L869.5,143z"/>
		<path class="st1" d="M744.2,113.1c4.6-0.1,9.1,0.2,13.6,0.7c4.6,0.7,7.5,3.1,8.5,7c0.8,3.7,1.1,7.4,1,11.2
			c0.1,3.8-0.2,7.6-0.8,11.3c-0.9,4.1-3.5,6.5-7.8,7.3c-4.6,0.6-9.3,0.9-14,0.8c-6.8,0-11.2-0.1-13.3-0.3c-3.2-0.3-5.6-1.1-7.1-2.3
			c-1.9-1.6-3.1-4.2-3.5-8c-0.3-2.9-0.4-5.7-0.4-8.6c0-6.6,0.6-11,1.9-13.4c0.8-1.5,1.9-2.7,3.4-3.4c1.8-0.9,3.8-1.4,5.8-1.6
			C735.7,113.3,740,113.1,744.2,113.1z M743.8,121.9c-2.7-0.1-5.4,0.1-8.1,0.5c-1.6,0.2-3,1.1-3.7,2.6c-0.5,1.2-0.8,3.8-0.7,7.7
			c0,1.8,0.1,3.6,0.3,5.4c0.3,2.1,2,3.7,4.1,3.9c2.8,0.4,5.7,0.5,8.5,0.5c2.5,0,5-0.1,7.5-0.4c2.6-0.4,4.1-1.7,4.5-4
			c0.2-2.1,0.3-4.1,0.3-6.2c0.1-2.2-0.1-4.3-0.5-6.4c-0.6-1.7-2.1-2.9-3.9-3.1C749.4,122,746.6,121.8,743.8,121.9z"/>
		<path class="st1" d="M627,132.3l27.7-27.7c0.4-0.4,1-0.4,1.4-0.1c0.2,0.2,0.3,0.4,0.3,0.6v10.5c0,1-0.5,2-1.3,2.7l-14,14
			l13.9,13.9c0.7,0.7,1.2,1.6,1.2,2.6v10.5c-0.1,0.5-0.6,0.9-1.1,0.9c-0.2,0-0.5-0.1-0.6-0.3L627,132.3z"/>
		<path class="st1" d="M943.4,132.2l-27.7,27.7c-0.4,0.4-1,0.4-1.4,0.1c-0.2-0.2-0.3-0.4-0.3-0.6v-10.5c0-1,0.5-2,1.3-2.7l14-14
			l-13.9-13.9c-0.7-0.7-1.2-1.6-1.2-2.6v-10.4c0.1-0.5,0.6-0.9,1.1-0.9c0.2,0,0.5,0.1,0.6,0.3L943.4,132.2z"/>
		<path class="st1" d="M898.3,104.3h10.1L886,160.2h-10.1L898.3,104.3z"/>
	</g>
</g>
</svg>
