<svg width="490" height="106" viewBox="0 0 490 106" fill="none" xmlns="http://www.w3.org/2000/svg">
<path d="M403.521 47.0371C406.263 28.6403 421.484 14.562 439.853 14.562C458.221 14.562 473.443 28.6403 476.185 47.0371H403.521ZM476.185 58.9629H484.542H488.627C488.844 57.0056 488.969 55.018 488.969 53C488.969 24.6481 466.977 1.6652 439.853 1.6652C412.726 1.6652 390.737 24.6481 390.737 53C390.737 81.3519 412.726 104.337 439.853 104.337C459.866 104.337 477.071 91.8193 484.724 73.8719H470.706C464.153 84.4358 452.794 91.438 439.853 91.438C421.484 91.438 406.263 77.3597 403.521 58.9629H440.948H476.185ZM252.603 89.7481H278.163V101.867H252.603H241.006H215.448V89.7481H241.006V20.2346C241.006 18.0346 239.301 16.2518 237.197 16.2518H215.448V4.13266H237.197C245.706 4.13266 252.603 11.3416 252.603 20.2346V89.7481ZM369.431 39.0619V101.867H357.837V39.0619C357.837 25.1013 347.009 13.7844 333.653 13.7844C320.297 13.7844 309.468 25.1013 309.468 39.0619V101.867H297.872V39.0619C297.872 18.4082 313.892 1.6652 333.653 1.6652C353.413 1.6652 369.431 18.4082 369.431 39.0619ZM181.09 4.13266H192.685V66.9381C192.685 87.5937 176.666 104.337 156.906 104.337C137.146 104.337 121.127 87.5937 121.127 66.9381V4.13266H132.722V66.9381C132.722 80.8987 143.549 92.2176 156.906 92.2176C170.262 92.2176 181.09 80.8987 181.09 66.9381V4.13266ZM80.801 76.1535L60.7432 55.1886L28.5552 21.5452C34.7536 16.7677 42.4127 13.9399 50.7052 13.9399C71.3453 13.9399 88.0771 31.4283 88.0771 53C88.0771 61.6673 85.3717 69.6729 80.801 76.1535ZM50.7052 92.0601C30.0668 92.0601 13.335 74.5736 13.335 53C13.335 44.3325 16.0404 36.3271 20.6112 29.8484L72.8569 84.4549C66.6585 89.2322 58.9994 92.0601 50.7052 92.0601ZM93.6442 89.5775L89.1712 84.9025C95.8325 76.1403 99.8207 65.0604 99.8207 53C99.8207 24.6481 77.8323 1.6652 50.7052 1.6652C39.1684 1.6652 28.5661 5.83389 20.1848 12.7962L26.7207 19.6277L7.94218 0L0 8.30324L12.2408 21.0976C5.57967 29.8597 1.59134 40.9396 1.59134 53C1.59134 81.3519 23.5798 104.337 50.7052 104.337C62.2437 104.337 72.8441 100.166 81.2273 93.2056L93.468 106L101.412 97.6967L93.6442 89.5775Z" fill="black"/>
</svg>
