<?xml version="1.0" standalone="no"?>
<!DOCTYPE svg PUBLIC "-//W3C//DTD SVG 20010904//EN"
 "http://www.w3.org/TR/2001/REC-SVG-20010904/DTD/svg10.dtd">
<svg version="1.0" xmlns="http://www.w3.org/2000/svg"
 width="870.000000pt" height="262.000000pt" viewBox="0 0 870.000000 262.000000"
 preserveAspectRatio="xMidYMid meet">

<g transform="translate(0.000000,262.000000) scale(0.100000,-0.100000)"
fill="#000000" stroke="none">
<path d="M5982 1428 l3 -863 90 0 90 0 3 863 2 862 -95 0 -95 0 2 -862z"/>
<path d="M816 2231 c-3 -5 16 -12 42 -16 125 -19 274 -81 379 -159 256 -188
328 -557 171 -876 -32 -67 -58 -102 -122 -165 -85 -84 -148 -123 -246 -150
l-55 -15 125 4 c333 12 570 167 664 436 25 73 30 103 34 220 l4 136 -37 74
c-53 106 -95 167 -165 238 -138 141 -292 227 -483 267 -75 16 -302 20 -311 6z"/>
<path d="M6480 2120 l0 -120 100 0 100 0 0 120 0 120 -100 0 -100 0 0 -120z"/>
<path d="M7128 2018 l-3 -223 -128 -3 -128 -3 3 -77 3 -77 128 -3 127 -3 0
-534 0 -535 90 0 90 0 0 535 0 535 140 0 140 0 0 80 0 80 -140 0 -140 0 0 225
0 225 -90 0 -90 0 -2 -222z"/>
<path d="M525 2143 c-241 -131 -397 -320 -471 -570 -20 -69 -27 -118 -31 -228
-3 -77 -3 -137 1 -134 3 3 17 45 31 94 83 285 250 473 490 552 67 22 98 26
195 26 130 0 203 -15 315 -67 201 -94 342 -284 346 -465 l1 -46 10 40 c14 56
3 288 -16 360 -46 171 -162 318 -306 388 -110 54 -213 77 -365 83 l-130 5 -70
-38z"/>
<path d="M2815 1792 c-116 -40 -210 -121 -270 -232 l-35 -65 0 148 0 147 -90
0 -90 0 0 -615 0 -615 89 0 89 0 4 328 c4 323 5 328 31 409 64 193 200 314
371 330 l66 6 0 88 0 89 -57 0 c-32 -1 -81 -8 -108 -18z"/>
<path d="M3511 1794 c-142 -38 -292 -155 -358 -279 -58 -111 -78 -195 -78
-335 1 -144 14 -201 77 -322 75 -145 234 -266 393 -298 84 -18 249 -15 326 5
93 24 174 71 243 141 58 57 136 174 136 201 0 10 -25 13 -98 13 l-98 0 -18
-31 c-47 -80 -144 -147 -244 -168 -252 -53 -480 99 -526 352 l-7 37 516 0 515
0 0 83 c0 175 -72 349 -191 461 -75 71 -177 126 -267 145 -74 15 -256 13 -321
-5z m333 -174 c82 -31 167 -113 210 -204 19 -39 38 -86 41 -103 l7 -33 -421 0
-420 0 16 53 c63 214 217 325 434 312 42 -2 101 -14 133 -25z"/>
<path d="M4981 1794 c-85 -23 -167 -72 -226 -136 l-55 -59 0 95 0 96 -90 0
-90 0 0 -855 0 -855 90 0 90 0 0 339 0 339 63 -62 c109 -108 217 -149 388
-148 160 1 280 47 391 151 75 70 129 157 165 266 23 69 26 98 27 210 1 110 -3
142 -22 205 -36 114 -79 188 -157 265 -77 77 -157 125 -251 149 -77 20 -249
20 -323 0z m225 -155 c211 -39 345 -217 345 -459 0 -211 -101 -374 -274 -443
-77 -30 -239 -29 -320 2 -79 31 -168 114 -207 194 -33 68 -60 177 -60 247 0
118 51 259 120 334 103 112 238 154 396 125z"/>
<path d="M600 1775 c-318 -64 -495 -297 -517 -681 -6 -105 -5 -114 20 -168
148 -322 487 -538 841 -535 l81 0 -86 29 c-249 83 -414 213 -503 395 -119 244
-71 556 118 762 101 110 207 166 361 189 l50 8 -50 7 c-79 11 -244 8 -315 -6z"/>
<path d="M6490 1175 l0 -615 90 0 90 0 0 615 0 615 -90 0 -90 0 0 -615z"/>
<path d="M899 1573 c-15 -2 -51 -19 -80 -36 -137 -82 -166 -265 -62 -386 103
-121 281 -120 389 2 46 52 64 102 64 173 0 91 -69 194 -155 230 -36 15 -118
24 -156 17z"/>
<path d="M1841 1318 c-92 -290 -278 -487 -517 -548 -340 -87 -719 103 -814
409 -11 35 -20 78 -20 96 0 19 -4 36 -9 39 -14 9 -22 -163 -11 -253 20 -173
76 -298 180 -401 116 -116 271 -180 491 -202 111 -11 118 -11 170 11 69 27
188 104 253 162 123 109 236 295 277 454 18 71 39 305 27 305 -2 0 -14 -33
-27 -72z"/>
</g>
</svg>
