<svg width="976" height="192" viewBox="0 0 976 192" fill="none" xmlns="http://www.w3.org/2000/svg">
<g clip-path="url(#clip0_511_7)">
<mask id="mask0_511_7" style="mask-type:luminance" maskUnits="userSpaceOnUse" x="0" y="0" width="248" height="192">
<path d="M248 0H0V192H248V0Z" fill="white"/>
</mask>
<g mask="url(#mask0_511_7)">
<path d="M246.543 0.391998C236.639 4.609 226.735 8.72701 216.927 13.14C203.624 19.122 190.612 25.692 177.212 31.575C156.432 40.695 135.458 49.618 114.484 58.541C101.958 63.935 90.305 70.505 80.11 79.134C69.623 87.959 60.398 97.863 51.9499 108.454C35.928 128.556 19.8089 148.854 3.6899 169.054C2.6218 170.427 1.4565 171.8 0 173.663C1.4565 173.565 2.4276 173.467 3.3015 173.369C13.9828 171.996 11.9436 173.173 19.4205 166.21C29.2279 157.189 38.7439 147.971 49.7165 140.127C66.03 128.556 82.731 117.573 101.084 108.846C123.223 98.353 146.431 90.705 170.901 86.096C180.417 84.331 189.738 82.174 199.157 80.114C203.527 79.134 207.411 77.075 209.644 73.348C217.607 60.012 225.861 46.872 233.143 33.242C238.678 22.946 242.854 12.159 247.514 1.569C247.709 1.177 247.709 0.686 247.903 0C247.32 0.196 246.932 0.293998 246.543 0.391998Z" fill="#121212"/>
<path d="M128.178 152.678C137.888 151.11 147.792 150.521 157.697 149.933C163.717 149.541 167.504 147.285 170.611 142.578C179.739 128.654 189.352 115.024 198.771 101.295C198.868 101.197 198.868 101.001 199.16 100.217C194.402 100.903 189.935 101.394 185.565 102.276C173.913 104.531 162.164 106.493 150.705 109.336C134.295 113.455 119.05 120.221 104.096 127.575C80.5 139.244 59.235 153.953 38.552 169.545C38.2606 169.839 37.9693 170.133 37.3867 170.819C38.5519 170.819 39.2317 170.721 39.9114 170.819C43.9897 171.016 48.2622 170.918 52.243 171.604C59.041 172.879 65.061 171.996 71.178 169.054C79.529 165.034 88.268 161.504 97.59 159.543C107.786 157.189 117.885 154.345 128.178 152.678Z" fill="#121212"/>
<path d="M230.717 190.725C228.484 189.842 226.25 189.058 223.92 188.273C203.14 181.311 182.554 173.957 163.134 164.249C160.124 162.68 156.919 162.484 153.521 162.876C129.536 165.524 106.134 170.525 83.1207 177.193C82.6357 177.291 82.2467 177.585 81.7617 177.781C81.7617 177.977 81.7617 178.075 81.7617 178.271C86.5197 179.35 91.1807 180.723 96.0357 181.507C103.416 182.684 110.892 183.567 118.272 184.449C131.478 186.018 144.684 187.685 157.89 188.96C170.028 190.038 182.166 190.725 194.304 191.313C204.402 191.804 214.598 191.902 224.697 192.098C226.833 192.098 228.872 191.705 231.397 191.509C230.911 190.921 230.814 190.725 230.717 190.725Z" fill="#121212"/>
</g>
<path d="M287.36 151.792C280.565 151.792 274.181 151.083 268.208 149.664C262.235 148.171 257.307 146.229 253.424 143.84L263.616 124.352C272.053 129.205 280.864 131.632 290.048 131.632C293.408 131.632 295.984 131.221 297.776 130.4C299.568 129.579 300.464 128.459 300.464 127.04C300.464 125.696 299.531 124.613 297.664 123.792C295.872 122.971 292.997 122.075 289.04 121.104C283.813 119.76 279.483 118.416 276.048 117.072C272.613 115.653 269.589 113.525 266.976 110.688C264.437 107.776 263.168 103.968 263.168 99.2639C263.168 93.3649 264.736 88.213 267.872 83.808C271.083 79.328 275.675 75.893 281.648 73.504C287.621 71.04 294.677 69.808 302.816 69.808C308.64 69.808 314.053 70.405 319.056 71.6C324.133 72.72 328.501 74.363 332.16 76.528L322.64 95.792C319.579 93.851 316.181 92.395 312.448 91.424C308.789 90.453 305.019 89.968 301.136 89.968C297.477 89.968 294.64 90.491 292.624 91.536C290.608 92.581 289.6 93.813 289.6 95.232C289.6 96.651 290.496 97.7709 292.288 98.5919C294.155 99.4129 297.179 100.309 301.36 101.28C306.437 102.475 310.693 103.744 314.128 105.088C317.637 106.432 320.661 108.523 323.2 111.36C325.739 114.197 327.008 117.931 327.008 122.56C327.008 128.384 325.403 133.499 322.192 137.904C318.981 142.309 314.389 145.744 308.416 148.208C302.443 150.597 295.424 151.792 287.36 151.792ZM473.081 71.6L432.313 150H403.977L399.497 108.672L377.993 150H349.657L340.249 71.6H366.345L371.385 116.288L394.681 71.6H418.985L423.465 116.96L447.097 71.6H473.081ZM478.951 71.6H505.383L489.703 150H463.271L478.951 71.6ZM540.507 91.536L537.819 104.976H570.523L566.491 124.912H533.899L528.859 150H502.427L518.107 71.6H581.835L577.803 91.536H540.507ZM603.612 92.096H580.652L584.796 71.6H657.148L653.004 92.096H630.044L618.508 150H592.076L603.612 92.096ZM765.352 97.36C765.352 104.304 763.485 110.389 759.752 115.616C756.093 120.768 750.904 124.613 744.184 127.152L757.288 150H729.848L718.76 130.288H712.264L708.344 150H681.912L697.592 71.6H732.76C743.064 71.6 751.053 73.877 756.728 78.432C762.477 82.912 765.352 89.221 765.352 97.36ZM738.584 99.9359C738.584 94.6349 735.298 91.984 728.728 91.984H719.88L716.184 110.352H727.048C730.706 110.352 733.544 109.456 735.56 107.664C737.576 105.797 738.584 103.221 738.584 99.9359ZM781.045 71.6H807.477L791.797 150H765.365L781.045 71.6ZM820.201 71.6H855.593C863.806 71.6 870.9 72.944 876.873 75.632C882.921 78.32 887.55 82.165 890.761 87.168C893.972 92.171 895.577 98.069 895.577 104.864C895.577 113.899 893.486 121.851 889.305 128.72C885.124 135.515 879.3 140.779 871.833 144.512C864.441 148.171 856.004 150 846.521 150H804.521L820.201 71.6ZM847.417 129.392C854.212 129.392 859.476 127.264 863.209 123.008C867.017 118.677 868.921 113.152 868.921 106.432C868.921 101.877 867.502 98.368 864.665 95.904C861.902 93.44 857.87 92.208 852.569 92.208H842.489L835.097 129.392H847.417ZM934.684 91.536L932.892 100.72H966.04L962.24 119.76H928.972L926.956 130.064H966.27L962.24 150H897.052L912.732 71.6H976.46L972.43 91.536H934.684Z" fill="#121212"/>
</g>
<defs>
<clipPath id="clip0_511_7">
<rect width="976" height="192" fill="white"/>
</clipPath>
</defs>
</svg>
