<svg width="275" height="90" viewBox="0 0 275 90" fill="none" xmlns="http://www.w3.org/2000/svg">
<path d="M97.4758 13.1123V9.01435H119.006V13.1123H110.666V36H105.817V13.1123H97.4758ZM127.716 24.1411V36H122.946V9.01435H127.611V19.1999H127.848C128.322 18.0579 129.056 17.1575 130.048 16.4987C131.05 15.831 132.323 15.4972 133.87 15.4972C135.275 15.4972 136.5 15.7915 137.546 16.3801C138.591 16.9686 139.399 17.8295 139.97 18.9627C140.55 20.0959 140.84 21.4794 140.84 23.1133V36H136.07V23.8512C136.07 22.4896 135.719 21.4311 135.016 20.6756C134.322 19.9114 133.347 19.5293 132.091 19.5293C131.247 19.5293 130.492 19.7137 129.824 20.0827C129.165 20.4428 128.647 20.9655 128.269 21.6507C127.901 22.3359 127.716 23.166 127.716 24.1411ZM145.702 36V15.7608H150.327V19.134H150.538C150.907 17.9656 151.539 17.0652 152.435 16.4328C153.34 15.7915 154.372 15.4709 155.532 15.4709C155.795 15.4709 156.09 15.4841 156.415 15.5104C156.748 15.528 157.025 15.5587 157.245 15.6026V19.9904C157.043 19.9202 156.722 19.8587 156.283 19.806C155.852 19.7445 155.435 19.7137 155.031 19.7137C154.161 19.7137 153.38 19.9026 152.686 20.2803C152 20.6493 151.46 21.1632 151.065 21.822C150.67 22.4808 150.472 23.2407 150.472 24.1015V36H145.702ZM168.54 36.3953C166.511 36.3953 164.759 35.9736 163.283 35.1303C161.816 34.2783 160.687 33.0748 159.897 31.52C159.106 29.9563 158.711 28.116 158.711 25.999C158.711 23.9171 159.106 22.0899 159.897 20.5175C160.696 18.9363 161.812 17.7065 163.243 16.8281C164.675 15.9408 166.357 15.4972 168.29 15.4972C169.537 15.4972 170.715 15.6993 171.821 16.1034C172.937 16.4987 173.921 17.1136 174.773 17.9481C175.634 18.7826 176.31 19.8455 176.802 21.1368C177.294 22.4193 177.54 23.9478 177.54 25.7223V27.1849H160.951V23.9698H172.968C172.959 23.0562 172.761 22.2436 172.375 21.5321C171.988 20.8118 171.448 20.2452 170.754 19.8323C170.069 19.4195 169.269 19.213 168.356 19.213C167.381 19.213 166.524 19.4502 165.786 19.9246C165.049 20.3901 164.473 21.005 164.06 21.7693C163.656 22.5247 163.45 23.3549 163.441 24.2597V27.0663C163.441 28.2434 163.656 29.2536 164.087 30.0969C164.517 30.9314 165.119 31.5727 165.892 32.0207C166.665 32.4599 167.57 32.6795 168.606 32.6795C169.3 32.6795 169.928 32.5829 170.491 32.3896C171.053 32.1876 171.54 31.8933 171.953 31.5068C172.366 31.1203 172.678 30.6415 172.889 30.0705L177.342 30.5712C177.061 31.7484 176.525 32.7761 175.735 33.6546C174.953 34.5242 173.952 35.2006 172.731 35.6838C171.51 36.1581 170.113 36.3953 168.54 36.3953ZM190.535 36.3953C188.506 36.3953 186.754 35.9736 185.278 35.1303C183.811 34.2783 182.682 33.0748 181.892 31.52C181.101 29.9563 180.706 28.116 180.706 25.999C180.706 23.9171 181.101 22.0899 181.892 20.5175C182.691 18.9363 183.807 17.7065 185.238 16.8281C186.67 15.9408 188.352 15.4972 190.285 15.4972C191.532 15.4972 192.71 15.6993 193.816 16.1034C194.932 16.4987 195.916 17.1136 196.768 17.9481C197.629 18.7826 198.305 19.8455 198.797 21.1368C199.289 22.4193 199.535 23.9478 199.535 25.7223V27.1849H182.946V23.9698H194.963C194.954 23.0562 194.756 22.2436 194.37 21.5321C193.983 20.8118 193.443 20.2452 192.749 19.8323C192.064 19.4195 191.265 19.213 190.351 19.213C189.376 19.213 188.519 19.4502 187.782 19.9246C187.044 20.3901 186.468 21.005 186.055 21.7693C185.651 22.5247 185.445 23.3549 185.436 24.2597V27.0663C185.436 28.2434 185.651 29.2536 186.082 30.0969C186.512 30.9314 187.114 31.5727 187.887 32.0207C188.66 32.4599 189.565 32.6795 190.601 32.6795C191.295 32.6795 191.923 32.5829 192.486 32.3896C193.048 32.1876 193.535 31.8933 193.948 31.5068C194.361 31.1203 194.673 30.6415 194.884 30.0705L199.337 30.5712C199.056 31.7484 198.52 32.7761 197.73 33.6546C196.948 34.5242 195.947 35.2006 194.726 35.6838C193.505 36.1581 192.108 36.3953 190.535 36.3953ZM207.639 36L201.92 15.7608H206.782L210.34 29.9915H210.524L214.161 15.7608H218.97L222.607 29.9124H222.805L226.31 15.7608H231.185L225.453 36H220.486L216.691 22.3227H216.414L212.619 36H207.639ZM240.34 36.4085C239.057 36.4085 237.902 36.1801 236.874 35.7233C235.855 35.2577 235.047 34.5725 234.45 33.6677C233.861 32.763 233.567 31.6473 233.567 30.3209C233.567 29.1789 233.778 28.2346 234.199 27.4879C234.621 26.7413 235.196 26.1439 235.925 25.6959C236.655 25.2479 237.476 24.9097 238.389 24.6813C239.312 24.4441 240.265 24.2728 241.249 24.1674C242.435 24.0444 243.397 23.9346 244.134 23.838C244.872 23.7326 245.408 23.5745 245.742 23.3637C246.085 23.144 246.256 22.8058 246.256 22.3491V22.27C246.256 21.2774 245.962 20.5087 245.373 19.9641C244.785 19.4195 243.937 19.1471 242.83 19.1471C241.662 19.1471 240.735 19.4019 240.05 19.9114C239.373 20.4209 238.917 21.0226 238.679 21.7166L234.226 21.0841C234.577 19.8543 235.157 18.8265 235.965 18.0008C236.773 17.1663 237.761 16.5426 238.93 16.1297C240.098 15.7081 241.389 15.4972 242.804 15.4972C243.779 15.4972 244.749 15.6114 245.716 15.8398C246.682 16.0682 247.565 16.4459 248.364 16.973C249.164 17.4913 249.805 18.1984 250.288 19.0944C250.78 19.9904 251.026 21.1105 251.026 22.4545V36H246.44V33.2197H246.282C245.992 33.7819 245.584 34.309 245.057 34.8009C244.539 35.2841 243.884 35.675 243.094 35.9736C242.312 36.2635 241.394 36.4085 240.34 36.4085ZM241.578 32.9035C242.536 32.9035 243.366 32.7146 244.069 32.3369C244.771 31.9504 245.312 31.4409 245.689 30.8084C246.076 30.1759 246.269 29.4864 246.269 28.7397V26.3547C246.12 26.4777 245.865 26.5919 245.505 26.6973C245.153 26.8027 244.758 26.895 244.319 26.974C243.88 27.0531 243.445 27.1234 243.014 27.1849C242.584 27.2464 242.211 27.2991 241.894 27.343C241.183 27.4396 240.546 27.5977 239.984 27.8173C239.422 28.037 238.978 28.3444 238.653 28.7397C238.328 29.1262 238.165 29.6269 238.165 30.2418C238.165 31.1203 238.486 31.7835 239.127 32.2315C239.769 32.6795 240.586 32.9035 241.578 32.9035ZM258.062 43.5897C257.412 43.5897 256.81 43.537 256.257 43.4316C255.712 43.335 255.277 43.2208 254.952 43.089L256.059 39.3732C256.753 39.5752 257.373 39.6719 257.917 39.6631C258.462 39.6543 258.941 39.483 259.353 39.1492C259.775 38.8242 260.131 38.2795 260.421 37.5153L260.829 36.4217L253.49 15.7608H258.55L263.214 31.0456H263.425L268.103 15.7608H273.176L265.072 38.4508C264.694 39.5225 264.194 40.4405 263.57 41.2048C262.946 41.9778 262.182 42.5663 261.277 42.9704C260.381 43.3833 259.309 43.5897 258.062 43.5897ZM113.327 61.4328C113.204 60.282 112.686 59.386 111.772 58.7447C110.868 58.1035 109.69 57.7829 108.241 57.7829C107.222 57.7829 106.348 57.9366 105.619 58.244C104.89 58.5515 104.332 58.9687 103.945 59.4958C103.559 60.0229 103.361 60.6246 103.353 61.301C103.353 61.8632 103.48 62.3507 103.735 62.7636C103.998 63.1765 104.354 63.5278 104.802 63.8177C105.25 64.0988 105.746 64.336 106.291 64.5293C106.836 64.7225 107.385 64.885 107.938 65.0168L110.468 65.6493C111.487 65.8865 112.466 66.2071 113.406 66.6112C114.355 67.0153 115.203 67.5247 115.949 68.1397C116.705 68.7546 117.302 69.4968 117.741 70.3665C118.181 71.2362 118.4 72.2551 118.4 73.4235C118.4 75.0047 117.996 76.397 117.188 77.6004C116.38 78.7951 115.211 79.7307 113.683 80.4071C112.163 81.0747 110.323 81.4085 108.162 81.4085C106.063 81.4085 104.24 81.0835 102.694 80.4334C101.156 79.7834 99.953 78.8346 99.0833 77.5873C98.2225 76.3399 97.7569 74.8202 97.6866 73.0282H102.496C102.566 73.9681 102.856 74.7499 103.366 75.3736C103.875 75.9973 104.538 76.4629 105.355 76.7703C106.181 77.0778 107.103 77.2315 108.122 77.2315C109.185 77.2315 110.117 77.0734 110.916 76.7571C111.724 76.4321 112.357 75.9841 112.813 75.4131C113.27 74.8334 113.503 74.157 113.512 73.3839C113.503 72.6812 113.296 72.1014 112.892 71.6446C112.488 71.1791 111.922 70.7925 111.193 70.4851C110.472 70.1688 109.629 69.8877 108.663 69.6418L105.593 68.8512C103.37 68.2802 101.613 67.4149 100.322 66.2554C99.0394 65.0871 98.3981 63.5366 98.3981 61.6041C98.3981 60.0141 98.8286 58.6218 99.6894 57.4271C100.559 56.2324 101.741 55.3057 103.234 54.6468C104.727 53.9792 106.418 53.6454 108.307 53.6454C110.222 53.6454 111.9 53.9792 113.34 54.6468C114.79 55.3057 115.927 56.2236 116.753 57.4007C117.579 58.5691 118.005 59.9131 118.031 61.4328H113.327ZM132.654 60.7608V64.4502H121.019V60.7608H132.654ZM123.892 55.9118H128.661V74.9124C128.661 75.5537 128.758 76.0456 128.951 76.3882C129.153 76.722 129.417 76.9504 129.742 77.0734C130.067 77.1964 130.427 77.2578 130.822 77.2578C131.121 77.2578 131.393 77.2359 131.639 77.192C131.894 77.148 132.087 77.1085 132.219 77.0734L133.023 80.8024C132.768 80.8902 132.404 80.9868 131.929 81.0922C131.464 81.1976 130.893 81.2591 130.216 81.2767C129.022 81.3118 127.946 81.1318 126.988 80.7365C126.031 80.3324 125.271 79.7087 124.708 78.8654C124.155 78.0221 123.883 76.968 123.892 75.703V55.9118ZM149.543 72.4879V60.7608H154.313V81H149.688V77.4028H149.477C149.02 78.536 148.269 79.4627 147.224 80.1831C146.187 80.9034 144.909 81.2635 143.39 81.2635C142.063 81.2635 140.89 80.9693 139.871 80.3807C138.861 79.7834 138.071 78.9181 137.5 77.7849C136.929 76.6429 136.643 75.2638 136.643 73.6475V60.7608H141.413V72.9096C141.413 74.1921 141.764 75.2111 142.467 75.9665C143.17 76.722 144.092 77.0997 145.234 77.0997C145.937 77.0997 146.618 76.9284 147.277 76.5858C147.936 76.2433 148.476 75.7338 148.897 75.0574C149.328 74.3722 149.543 73.5157 149.543 72.4879ZM166.729 81.3558C165.139 81.3558 163.716 80.9473 162.459 80.1303C161.203 79.3134 160.211 78.1275 159.481 76.5727C158.752 75.0178 158.388 73.1292 158.388 70.9067C158.388 68.6579 158.757 66.7605 159.495 65.2145C160.241 63.6596 161.247 62.4869 162.512 61.6963C163.777 60.8969 165.187 60.4972 166.742 60.4972C167.928 60.4972 168.903 60.6993 169.667 61.1034C170.431 61.4987 171.037 61.9774 171.485 62.5396C171.933 63.093 172.28 63.6157 172.526 64.1076H172.724V54.0144H177.507V81H172.816V77.8113H172.526C172.28 78.3032 171.925 78.8259 171.459 79.3793C170.993 79.9239 170.379 80.3895 169.614 80.776C168.85 81.1625 167.888 81.3558 166.729 81.3558ZM168.059 77.4423C169.07 77.4423 169.931 77.17 170.642 76.6254C171.354 76.072 171.894 75.3033 172.263 74.3195C172.632 73.3356 172.816 72.1893 172.816 70.8804C172.816 69.5715 172.632 68.4339 172.263 67.4676C171.903 66.5014 171.367 65.7503 170.655 65.2145C169.952 64.6786 169.087 64.4107 168.059 64.4107C166.997 64.4107 166.109 64.6874 165.398 65.2408C164.686 65.7942 164.15 66.5585 163.79 67.5335C163.43 68.5086 163.25 69.6242 163.25 70.8804C163.25 72.1453 163.43 73.2741 163.79 74.2668C164.159 75.2506 164.699 76.028 165.411 76.599C166.131 77.1612 167.014 77.4423 168.059 77.4423ZM182.59 81V60.7608H187.36V81H182.59ZM184.988 57.8883C184.233 57.8883 183.583 57.6379 183.038 57.1372C182.493 56.6277 182.221 56.0172 182.221 55.3057C182.221 54.5853 182.493 53.9748 183.038 53.4741C183.583 52.9646 184.233 52.7099 184.988 52.7099C185.752 52.7099 186.402 52.9646 186.938 53.4741C187.483 53.9748 187.755 54.5853 187.755 55.3057C187.755 56.0172 187.483 56.6277 186.938 57.1372C186.402 57.6379 185.752 57.8883 184.988 57.8883ZM201.093 81.3953C199.117 81.3953 197.404 80.9605 195.954 80.0908C194.505 79.2212 193.38 78.0045 192.581 76.4409C191.79 74.8773 191.395 73.0501 191.395 70.9594C191.395 68.8688 191.79 67.0372 192.581 65.4648C193.38 63.8924 194.505 62.6714 195.954 61.8017C197.404 60.9321 199.117 60.4972 201.093 60.4972C203.07 60.4972 204.783 60.9321 206.232 61.8017C207.681 62.6714 208.801 63.8924 209.592 65.4648C210.391 67.0372 210.791 68.8688 210.791 70.9594C210.791 73.0501 210.391 74.8773 209.592 76.4409C208.801 78.0045 207.681 79.2212 206.232 80.0908C204.783 80.9605 203.07 81.3953 201.093 81.3953ZM201.119 77.5741C202.191 77.5741 203.087 77.2798 203.808 76.6913C204.528 76.0939 205.064 75.2945 205.415 74.2931C205.775 73.2917 205.955 72.1761 205.955 70.9463C205.955 69.7077 205.775 68.5877 205.415 67.5862C205.064 66.576 204.528 65.7723 203.808 65.1749C203.087 64.5776 202.191 64.2789 201.119 64.2789C200.021 64.2789 199.108 64.5776 198.379 65.1749C197.658 65.7723 197.118 66.576 196.758 67.5862C196.407 68.5877 196.231 69.7077 196.231 70.9463C196.231 72.1761 196.407 73.2917 196.758 74.2931C197.118 75.2945 197.658 76.0939 198.379 76.6913C199.108 77.2798 200.021 77.5741 201.119 77.5741Z" fill="#181717"/>
<path d="M8.89551 32.2524L48.0866 4.62158L63.66 34.4544L56.4859 39.5686L69.9107 64.7843L34.1114 90.0001L19.5145 77.1437L26.0671 67.8742L35.5497 75.8652L56.3083 61.588L47.9978 45.7838L32.7263 56.3673L26.1737 49.1044L50.8922 31.6131L44.464 19.7333L16.1051 38.9826L8.89551 32.2524Z" fill="#181717"/>
<path d="M48.0876 4.62152L39.4042 4L0 31.6486L8.89665 32.2523L48.0876 4.62152Z" fill="#312F2F"/>
<path d="M0 31.6487L7.44045 38.5919L16.1062 38.9826L8.89665 32.2525L0 31.6487Z" fill="#525050"/>
<path d="M34.1136 90L25.1815 89.4853L10.7979 76.6108L19.5169 77.1436L34.1136 90Z" fill="#525050"/>
<path d="M26.0695 67.8742L17.1728 67.2527L10.7979 76.6109L19.5169 77.1437L26.0695 67.8742Z" fill="#6B6B6B"/>
<path d="M56.3089 61.5879L47.3946 61.1084L31.2529 72.2425L35.5502 75.865L56.3089 61.5879Z" fill="#312F2F"/>
<path d="M47.9991 45.7837L56.3097 61.588L47.3954 61.1085L41.8018 50.081L47.9991 45.7837Z" fill="#312F2F"/>
<path d="M32.7277 56.3672L23.9554 55.9232L17.3496 48.6426L26.1752 49.1044L32.7277 56.3672Z" fill="#525050"/>
<path d="M50.8938 31.6129L41.944 31.1157L17.3496 48.6425L26.1752 49.1043L50.8938 31.6129Z" fill="#6B6B6B"/>
<path d="M44.4655 19.7334L50.8938 31.6132L41.944 31.116L38.2148 23.9775L44.4655 19.7334Z" fill="#525050"/>
</svg>
